<svg version="1" xmlns="http://www.w3.org/2000/svg" width="266.667" height="266.667" viewBox="0 0 200.000000 200.000000"><path d="M87.5 3c-3.2 1.3-7.3 2-11.6 2-5.4 0-7.2.5-11 2.8-2.4 1.6-5.6 4.5-7.1 6.4-2.1 2.8-3.8 3.8-7 4.3C40.7 20.2 33.6 24.7 31 31c-.6 1.6-3.4 4.2-6.1 5.9-5.8 3.6-8.5 8.5-9.5 17.7-.6 5.2-1.3 6.5-5.5 11.1-5.6 6.2-7.4 10.8-6.5 17 .4 3.3 0 6.2-1.6 10.8-2 5.8-2.1 6.8-1 11.2 1.3 4.7 5 11.8 5.9 11 .2-.3-.8-2.6-2.2-5.2-2.8-5.4-3.3-13-1.1-18l1.3-3 2.2 6.9c2.3 7.3 2.7 13.9 1.1 18-1.3 3.6-2.4 16.8-1.6 20.9.4 2.1 2.4 5.5 5 8.4 2.6 2.9 4.6 6.2 5 8.4 1.1 6.3 4.5 10.1 12.2 13.9 6.3 3.1 7.4 4.1 9.9 8.8 3.7 7 8.1 10.7 14.6 12.2 3 .7 6.3 2 7.4 3 6.6 5.9 14 7.4 23.9 4.9 3.9-1 4.9-.8 9.5 1.5 7.5 3.9 12.7 4.3 18.7 1.6 3.7-1.7 6.6-2.2 11.9-2.1 6.4.2 7.5-.1 11.2-2.8 2.2-1.6 5.3-4.5 6.7-6.4 2.2-2.9 3.6-3.6 8.9-4.7 8.8-1.7 13.7-4.8 17-10.8 1.7-3.2 3.8-5.4 5.7-6.2 6.6-2.7 11-11.3 11-21.3 0-2.5 1-4.2 4.1-7.2 6.4-6.2 8.2-10.7 7.6-18.3-.3-4.5 0-7.6 1-10 2.4-5.7 1.9-11.7-1.6-18.6-3-5.8-3.1-6.5-2.5-14.2.6-7.2.4-8.7-1.5-12.8-1.3-2.5-3.4-5.4-4.7-6.5-1.5-1.2-2.8-3.7-3.5-7.1-1.5-6.8-5.4-11.1-13.2-14.5-5.7-2.5-6.6-3.4-9.1-8.2-4.4-8.2-11.5-13.3-18.8-13.3-.9 0-2-.5-2.3-1.1-.4-.6-2.5-2.4-4.7-4-3.5-2.5-5-2.9-10.3-2.9-3.4 0-7.6.5-9.4 1.1-2.8 1-4 .8-9.3-1.6C98.7.9 93.8.5 87.5 3zm18 2.4l5 2.3-3.8.8c-4.8.9-15.2.1-19.2-1.5l-3-1.2 3-1.4c4.8-2.1 12.3-1.7 18 1zM80 6.7c0 1.6-12.1 8.5-17.2 9.8-2.8.8-5.3 1.3-5.5 1.2-.7-.8 6.4-8 9.5-9.7C70.4 6.1 80 5.2 80 6.7zm52.3.7c1.8.7 4.1 2.3 5.2 3.6l2 2.3-8.5-.5c-5.6-.3-10-1.2-13-2.5l-4.5-2 3.5-1.1c5-1.5 11.6-1.4 15.3.2zM92.4 9.5c5.6 1.3 8.2 1.4 13.1.6 5.5-1 6.5-.9 12 1.4 4.8 1.9 7.8 2.5 14.6 2.5h8.6l4.4 5.5c4.7 6 9.2 9.5 15.2 12 2 .8 3.7 2 3.7 2.7 0 3 6.8 11.3 12.6 15.4 3.5 2.5 6.4 4.6 6.4 4.7 0 .1.5 4.4 1 9.5.7 7.4 1.5 10.3 3.8 14.5 2.7 4.8 3 5.9 2.5 11.9-.4 4.9 0 8.3 1.5 13.4 4.3 14.6 4.6 17 3.3 21.5-1.5 5.1-10 14.7-10.1 11.3 0-3.8 2.8-11.3 6-16.5 1.8-2.7 3-5.2 2.8-5.5-.8-.7-6.8 9-8.4 13.4-.7 2-1.3 5.5-1.4 7.8 0 3.3-.7 4.6-3.6 7.5-4.1 3.9-6.4 8-8.9 15.9-.9 3-2.2 6-2.9 6.6-.6.6-4.2 2.4-8.1 3.9-4.9 2.1-8.4 4.4-11.6 7.7-2.5 2.6-5.5 4.8-6.6 4.8-4.2 0-11.4 2.9-18 7.3l-6.8 4.5-7.5-2c-6.6-1.7-8.4-1.8-14.6-.9-6.7 1.1-7.3 1-12.5-1.4-4.4-2-6.9-2.5-14-2.5h-8.6l-6-6.8c-4.3-4.8-7.7-7.5-12.1-9.6-4.8-2.3-6.4-3.6-7.8-6.8-1.7-3.7-7.4-9.6-14.3-14.8-3.1-2.4-3.3-2.9-4.2-11.4-.7-6.7-1.6-10.2-3.8-14.1-2.6-4.8-2.8-6-2.3-12.8.3-5.8 0-9.1-1.8-15L5.7 88l2.5-3.8c4.6-6.8 6.7-11.8 7.4-17.3.4-3.8 1.4-6.3 3.4-8.4 4.5-5 6.6-8.7 9.2-16 1.4-3.8 3.2-7.3 3.9-7.7.8-.4 4.7-2.1 8.7-3.9 5.1-2.3 8.5-4.6 11.2-7.6 2-2.4 4.6-4.3 5.7-4.3 4.3 0 12.2-3.2 18.3-7.5 3.6-2.4 7.2-4.3 8-4 .8.2 4.6 1.2 8.4 2zm59.6 7.6c1.9 1.2 4 2.9 4.8 3.8 1.5 1.9 5.2 8.7 5.2 9.6 0 1.9-10.7-5.6-14.6-10.2l-4.6-5.3h2.9c1.5 0 4.4 1 6.3 2.1zm-101.6 6C48.1 25.7 34.8 33 32.6 33c-1.5 0-.3-2.3 3-6 3.6-4 9.8-6.8 15.3-6.9l2.5-.1-3 3.1zm121.5 13.4c2.7 1.3 6 3.8 7.4 5.4 2.5 3 4.4 8.7 3.3 9.8-1 1.1-12.9-9.3-15.3-13.5-2.9-4.9-2.1-5.2 4.6-1.7zM26.8 42.2c-2.4 7-5.4 12.3-8.8 15.3l-2.3 2 .6-2c.3-1.1.8-4 1.1-6.5.8-5.7 3.6-10.4 7.8-13 1.8-1.1 3.4-2 3.5-2 .1 0-.8 2.8-1.9 6.2zm161.7 17.3c3.4 4.4 4.6 9.6 3.8 16.4l-.6 5.4-1.8-2.2c-2.6-3.2-4.9-11.5-4.9-17.8 0-2.9.2-5.3.4-5.3.3 0 1.7 1.6 3.1 3.5zM14.3 66.7c-.7 4.7-3.3 11-6.7 15.9L5 86.5l-.2-3c-.2-4.8.3-8.8 1.4-10.8 1-1.9 7.7-9.7 8.4-9.7.1 0 0 1.7-.3 3.7zm181.2 24.5c2.7 5.8 3.1 10.7 1.4 15.8-1.4 3.9-2.1 3.1-4.4-6-1.5-5.7-1.4-15 .1-15 .3 0 1.6 2.4 2.9 5.2zm-184 34.1c1.5 3.2 2.7 8.2 3.1 12.7l.7 7.5-2.3-2c-4.3-3.7-6.3-10-5.5-17.1.4-3.5.9-6.4 1.1-6.4.3 0 1.6 2.4 2.9 5.3zm171.8 20.4c-1 10.3-3.2 14.7-9.4 17.8l-2.8 1.5 1.6-5.3c2.1-7 3.9-10.6 7.6-14.5 1.7-1.7 3.1-3.2 3.2-3.2.1 0-.1 1.7-.2 3.7zM23.1 153C28 156.7 34 163.9 34 166.2c0 1.1-6.3-1.5-10.1-4.3-1.6-1.1-3.5-3.3-4.3-4.7-1.4-2.8-2.9-8.2-2.3-8.2.2 0 2.8 1.8 5.8 4zM168 168.7c0 .5-.9 2.2-2 4-2.3 3.9-7.8 6.9-14.5 7.8l-5 .7 3-3.1c1.7-1.8 6.2-4.8 10-6.7 7.3-3.5 8.5-3.9 8.5-2.7zM52.4 180.2c2.5 2.8 4.3 5.4 4.1 5.6-.9 1-7.5-1-10-3-2.7-2.1-8.5-10.3-8.5-12 0-2 10.2 4.6 14.4 9.4zm87.1 7.8c-4.9 5-9.1 7-15 7-5.6 0-5.3-.9 2.1-5.6 4.8-3.1 15.2-6.8 16.3-5.8.3.3-1.3 2.2-3.4 4.4zm-57 2.7l4 2.1-4 1.1c-8.1 2.2-16.5.4-20.6-4.5-1.3-1.6-.8-1.6 7.6-1.2 6.5.3 10.1 1 13 2.5zm27.4 2.5c2.8.6 5.1 1.4 5.1 1.8 0 1.4-5.2 3-9.6 3-5.4 0-15.2-3.8-13.2-5.1 1.9-1.3 11.9-1.1 17.7.3z"/><path d="M38.9 83.2c-.9 1.6-.9 2.3-.1 2.6 3.4 1.1 5.8 5.3 12.1 20.7 7.7 18.7 6.6 17.7 15.1 15.5 3.5-.9 3.7-1.3 9.9-16.8 5-12.6 6.9-16.2 9.2-17.8 1.8-1.1 2.9-2.8 2.9-4.2 0-2.1-.3-2.2-8.8-2.2-8.4 0-8.9.1-10 2.4-.9 2.1-.7 2.5 2.4 4.2 1.9 1 3.4 2.2 3.4 2.6 0 1.5-8.4 21.8-9 21.8-.4 0-2.6-4.8-4.9-10.8-2.4-5.9-4.5-11.2-4.7-11.7-.2-.6.9-1.8 2.6-2.7 1.8-1 3-2.5 3-3.8 0-1.9-.6-2-11-2-10.2 0-11 .1-12.1 2.2zM103.8 94.4c-5.5 2-8.6 4.3-10.8 7.9-4 6.4-1.5 15.8 4.9 19.2 7.8 4 19.3-.3 23.7-8.7 5.5-10.6-6.1-22.6-17.8-18.4zm5.7 9c2.1 3.2 1.6 10.5-.7 12-2.9 1.8-6-2.1-6-7.6-.1-2.5.2-5 .6-5.6 1.2-2 4.5-1.3 6.1 1.2zM133 95.4c-6.4 2.5-7.7 5.4-3.5 7.6 2.2 1.2 2.5 2 2.5 6.4 0 4-.5 5.5-2.6 7.7-4.4 4.6-2.8 5.9 6.9 5.9 8.1 0 10.7-.9 10.7-3.6 0-.7-.9-1.6-2-1.9-1.7-.6-2-1.5-2-7.5 0-6.1.2-6.8 2.2-7.3 4-1.1 4.8.8 4.8 10.9v9.4h6.5c5.5 0 6.6-.3 7.6-2.1 1.1-2.1 0-3.8-2.3-3.9-.5 0-.8-3.7-.8-8.3 0-10.1-1.2-12.7-6.7-14.6-4-1.4-4.3-1.4-8.2 1.2-2.2 1.5-4.2 2.7-4.5 2.7-.2 0-.7-1.1-1-2.5-.7-2.9-.5-2.9-7.6-.1z"/></svg>