<svg version="1" xmlns="http://www.w3.org/2000/svg" width="266.667" height="266.667" viewBox="0 0 200.000000 200.000000"><path d="M87 3.1c-3.5 1.6-5.5 1.9-9.7 1.3-6.8-.8-12.8 2-18.5 8.6-3.5 4.1-4.9 4.9-8.7 5.5-2.5.3-6.9 1.7-9.8 3-4.2 1.9-5.8 3.3-8 7.3-1.6 3-4.2 5.7-6.5 7C19 39.8 15 47.4 15 56.5c0 3.5-.6 4.7-4.1 8-6.2 6.1-8.2 10.7-7.7 17.9.4 4.5 0 7.2-1.3 10.1-2.8 6.2-2.4 11.4 1.5 18.9 3.3 6.2 3.4 6.9 2.9 14.5-.7 10-.1 12.3 4.7 17.4 2.5 2.8 4.3 6 5.1 9.2 1.6 6.3 7.6 12.5 14.6 15 4.5 1.6 5.4 2.4 7.4 6.6 3.6 7.8 11.5 13.9 18 13.9 1.1 0 3.9 1.6 6.2 3.5 5.9 5.1 10.5 6.1 19.2 4.2 6.9-1.5 7.1-1.4 11.9 1 7.1 3.6 14.1 4.1 20.2 1.4 3.8-1.7 5.9-2.1 9.6-1.6 6.2.9 11.9-1.7 17.9-8.2 4-4.3 5.5-5.1 10.3-6.1 3.2-.6 7.3-1.9 9.3-2.8 3.5-1.7 9.3-8.5 9.3-10.9 0-.7 1.3-1.8 3-2.5 4.1-1.7 9.7-8.1 10.9-12.7.6-2.1 1.1-5.8 1.1-8.3 0-4.1.5-5 4.6-9 2.5-2.5 5-5.4 5.6-6.5 2-3.6 2.7-8.9 1.8-13.2-.8-3.4-.6-4.9 1-8.5 1.1-2.4 2-5.5 2-7 0-3.2-2.6-10.2-5.1-13.9-1.5-2.2-1.7-3.9-1.2-11.5.5-7.8.3-9.5-1.5-12.9-1.1-2.2-3.2-5.1-4.6-6.4-1.4-1.4-2.6-2.9-2.6-3.5 0-3.3-2.5-9.1-5.3-12.3-1.8-2-5.9-4.9-9.3-6.4-5.3-2.4-6.5-3.5-8.4-7.5C157.9 18 151 13 143.4 13c-1.1 0-3.1-1.2-4.5-2.6C136 7.2 129.5 4.1 126 4c-1.4 0-5.1.7-8.2 1.5-5.7 1.4-5.8 1.4-12-1.5C98.4.5 93.3.2 87 3.1zm17.2 2.1c4.2 1.8 4.7 2.3 3.2 2.9-2.9 1.1-11.7 1-15.5-.2-1.9-.6-4.1-1.3-4.9-1.6-2.6-.8 3.1-3.2 7.8-3.3 2.4 0 6.6 1 9.4 2.2zM78.4 6.8c1.2 1.9-10.6 8.6-16.9 9.7l-4 .7 4.5-4.6c2.5-2.6 5.8-5.1 7.5-5.5 4-1.2 8.3-1.3 8.9-.3zm54.1 1.1c2.2 1 4.7 2.6 5.5 3.6 1.4 1.7 1.1 1.8-6.5 1.3-7.3-.5-17.3-3.3-16.1-4.5.8-.8 6.8-2.1 10.1-2.2 1.7 0 4.8.8 7 1.8zm-32 3.1c2.2 0 5.6-.5 7.6-1 3.1-.9 4.5-.6 9.3 1.6 4.2 1.9 8 2.7 14.9 3.2l9.2.6 5.1 6c3.3 4.1 6.8 7 10.5 8.8 4.3 2.2 6.1 3.8 8.9 8.5 2.3 3.8 5.8 7.5 10 10.7l6.5 4.9.8 8.1c.6 5.8 1.7 9.9 3.9 14.6 2.8 5.7 3.1 7.4 2.9 14-.2 5.4.4 9.4 1.9 14.3l2.1 6.8-3.9 6.2c-4.2 6.7-5.7 10.6-6.7 17.9-.3 2.7-1 4.8-1.4 4.8-2.1 0-7.9 9.3-10.3 16.5l-2.7 8-7.3 3.1c-4.4 1.9-9.5 5.1-13.1 8.2-3.2 2.9-6.6 5.2-7.5 5.2-3.9 0-9.4 2.3-16.4 6.8l-7.3 4.8-6-1.7c-7-2-13.5-2.3-18.6-.9-3.1.9-4.5.6-9.5-1.6-4.3-1.9-8.2-2.7-14.9-3.1l-9-.6-6.2-6.7c-4.1-4.4-7.8-7.4-11.1-8.8-4-1.7-5.5-3.2-8.6-8.1-2.6-4.2-5.7-7.5-10-10.6l-6.3-4.5-1-9.1c-.8-6.6-1.8-10.6-4-14.7-2.5-5-2.8-6.3-2.1-10.7.9-5.8.4-9.7-2.3-18.2l-2-6.1 3.6-5.7C13.8 75.8 16 70 16 65.3c0-2.7 1-4.6 4.4-8.4 3.8-4.2 5.6-7.7 9.8-19 .7-2 2.6-3.3 7.8-5.3 4.5-1.8 9-4.6 12.8-8 4.4-4 7-5.5 10.2-6 4.7-.7 11.6-4 17.5-8.3l4-3 7 1.9c3.9.9 8.8 1.8 11 1.8zm49.2 5.1c3.8 1.4 7.1 4.6 9.4 9.1 2.6 5 2.5 5.1-1.9 2.9C153.9 26.4 144 17 144 15.5c0-.8 2.6-.6 5.7.6zm-98.8 6.5c-3.1 3.3-7.1 5.7-13.8 8.3l-5.3 2.2 1.8-3.2c2.5-4.3 6.3-6.9 12.1-8.5 7.2-1.9 8-1.8 5.2 1.2zm125.2 16.5c3.1 2.2 5.2 5.6 6.3 10.2l.7 2.9-3.3-2.3C173 45.3 166 37.5 166 34.5c0-.8 6.8 2.2 10.1 4.6zm-148.7.6c-1.2 4.8-5.1 12.7-7.9 15.8l-2.6 3 .5-5.2c.7-6.9 3-11.7 6.9-14.2 4-2.6 3.9-2.6 3.1.6zm163.2 23.5c1.5 3 1.9 15.4.5 16.2-1.5 1-5.2-9.2-5.8-16.2l-.6-6.7 2.3 2c1.2 1.1 2.8 3.2 3.6 4.7zM13 71.8c-.7 2-2.6 5.9-4.4 8.7l-3.1 5-.3-4.7c-.3-5.1 1-8.5 5.5-13.9 2.6-3.1 2.8-3.2 3.1-1.1.2 1.2-.2 3.9-.8 6zm185 28.7c-.1 1.6-.7 4.3-1.4 6l-1.3 3-1.6-5.5c-1.7-6-2-8.4-1.7-14.5l.2-4 2.9 6c1.6 3.3 2.9 7.3 2.9 9zM8.2 102.6c.7 3.5.7 6.5.1 9.1l-1 3.8-2.6-5.5c-2.9-6-3.4-10.8-1.5-16.1l1.2-3.4 1.3 3.4c.8 1.9 1.9 5.8 2.5 8.7zM195 124.5c-.8 3.7-3.4 7.7-7.5 11.5l-2.7 2.5.7-4c.9-4.9 2.8-9.6 6.3-15.5l2.6-4.5.7 3.3c.4 1.8.3 4.8-.1 6.7zm-182.6 3.3c.8 2.6 1.7 7.6 2.1 11.1.6 5.8.5 6.3-.9 5.2-4.6-3.8-6.2-9.2-5.8-19 .2-3.7.4-4.2 1.6-3.1.8.6 2.2 3.3 3 5.8zm170.3 20.6c-.3 3-1.2 6.7-2.1 8.4-1.6 3.1-7.3 7.8-8.3 6.9-1.1-1.1 3.8-13.4 6.8-17 1.7-2 3.3-3.7 3.6-3.7.3 0 .3 2.4 0 5.4zM23.9 154c4.2 3.2 10.1 10.4 10.1 12.2 0 1.4-9.7-4-12.4-6.8-2.6-2.8-5.4-11.3-3.3-9.6.7.4 3.2 2.3 5.6 4.2zm143.3 16.7c-2.2 4-7.1 7.5-12.7 8.9-3.1.8-5.9 1.3-6.2 1.1-.9-1 8.6-8.1 13.7-10.2 3-1.2 5.6-2.1 5.8-1.9.2.1-.1 1.1-.6 2.1zm-122.1 3.1C50.8 177.5 58 186 55.3 186c-4.3-.1-10.3-4-13.3-8.6-4.6-7.3-4-8.1 3.1-3.6zm95.7 12.4c-2.6 3.9-9.3 8-14.1 8.5-2.5.3-4.7.1-5.1-.5-1.2-1.9 13.6-9.9 18.8-10.1 1.7-.1 1.7.1.4 2.1zM82 190.8l4.5 1.9-5.7 1.2c-7.3 1.5-12.3.6-16.2-3.1l-3.1-2.9 8 .4c4.7.3 9.8 1.3 12.5 2.5zm26.5 2.3c7.1 1.8 7.2 2 3.6 3.5-4.8 2-10.4 1.7-16.3-.8-4.2-1.8-4.7-2.3-3.2-2.9 2.8-1.1 11.4-1 15.9.2z"/><path d="M38.9 83.2c-1.2 2.2-1.3 2.1 3.4 5.3.8.5 4.5 8.6 8.3 17.9 3.7 9.2 7.2 17 7.8 17.2.6.2 3.4-.2 6.1-.9l5-1.3 6.3-15.5c5.1-12.6 6.9-16 9.9-18.5 2.5-2.1 3.4-3.6 3-4.7-.5-1.4-2.2-1.7-9.6-1.7-8 0-9.1.2-10.1 2-1.4 2.5-.8 3.4 3 5 2.2.9 2.9 1.8 2.5 2.9-4.9 13.2-8.1 21.1-8.5 21.1-.3 0-2.6-5.3-5.2-11.8l-4.6-11.7 2.9-1.4c2-1 2.9-2.2 2.9-3.8 0-2.3-.2-2.3-11-2.3-10.2 0-11 .1-12.1 2.2zM102.6 94.5c-8.2 2.9-13.1 10.8-11.5 18.3 1.4 6.8 9.9 12.2 16.6 10.6 4.8-1.1 11-5.2 13.2-8.8 3.1-5 2.8-11.6-.6-15.7-4.7-5.6-10.4-7-17.7-4.4zm6.4 8c3 3.6 2.2 13.5-1.1 13.5-2.6 0-4.9-4.2-4.9-8.8 0-2.7.3-5.2.7-5.5 1.1-1.2 4-.8 5.3.8zM132.3 95.3c-6.1 2.5-7 5.3-2.8 8.1 2.1 1.4 2.5 2.4 2.5 6.6 0 4.2-.4 5.2-2.5 6.6-1.5 1-2.5 2.6-2.5 4 0 2.4.2 2.4 9.3 2.4 9 0 9.4-.1 10.5-2.5 1-2.2.9-2.5-1.3-3.1-2.4-.6-2.5-1-2.5-7.5V103h5.9l.3 9.7.3 9.8 7.2.3c6.4.3 7.2.1 7.8-1.7.8-2.5-.1-4.1-2.1-4.1-1.1 0-1.4-1.8-1.4-8.9 0-10.8-1.8-13.9-8.6-14.8-3.3-.4-4.5-.1-7.2 2.2l-3.2 2.7-1-2.6c-1.1-3.1-1.8-3.1-8.7-.3z"/></svg>